<svg width="40" height="40" viewBox="0 0 40 40" fill="none" xmlns="http://www.w3.org/2000/svg">
<path d="M21.6498 4.5835C23.0845 4.5835 23.7196 4.58475 24.2432 4.63164C30.0654 5.15291 34.6796 9.76711 35.2009 15.5893C35.2478 16.113 35.249 16.748 35.249 18.1827V19.8327C35.249 20.523 35.8087 21.0827 36.499 21.0827C37.1894 21.0827 37.749 20.523 37.749 19.8327V18.0987C37.749 16.7705 37.7491 16.0157 37.6909 15.3664C37.0618 8.33958 31.4929 2.77072 24.4662 2.1416C23.8168 2.08346 23.062 2.08347 21.7337 2.0835H19.9999C19.3095 2.0835 18.7499 2.64314 18.7499 3.3335C18.7499 4.02386 19.3095 4.5835 19.9999 4.5835L21.6498 4.5835Z" fill="white"/>
<path fill-rule="evenodd" clip-rule="evenodd" d="M11.8527 6.709C10.0992 5.09777 7.40399 5.09777 5.65051 6.709C5.5787 6.77498 5.50205 6.85165 5.40251 6.95121L3.90667 8.44705C2.40148 9.95224 1.76961 12.1221 2.23138 14.2001C4.85133 25.9898 14.0589 35.1974 25.8487 37.8173C27.9266 38.2791 30.0965 37.6473 31.6017 36.1421L33.0974 34.6464C33.197 34.5468 33.2737 34.4701 33.3397 34.3982C34.951 32.6447 34.951 29.9495 33.3397 28.196C33.2737 28.1242 33.197 28.0475 33.0974 27.9478L30.6486 25.4991C28.9484 23.7989 26.3809 23.3127 24.1768 24.2734C22.9149 24.8235 21.445 24.5451 20.4717 23.5717L16.477 19.5771C15.5037 18.6037 15.2253 17.1338 15.7753 15.872C16.7361 13.6679 16.2498 11.1003 14.5497 9.40014L12.1008 6.95125C12.0012 6.85167 11.9245 6.77499 11.8527 6.709ZM7.34202 8.54986C8.13906 7.81749 9.36418 7.81749 10.1612 8.54986C10.1887 8.57514 10.2248 8.6108 10.3516 8.73758L12.7819 11.1679C13.7552 12.1412 14.0336 13.6112 13.4836 14.873C12.5228 17.0771 13.0091 19.6447 14.7092 21.3448L18.7039 25.3395C20.4041 27.0397 22.9716 27.5259 25.1757 26.5652C26.4376 26.0151 27.9075 26.2935 28.8808 27.2668L31.3112 29.6972C31.4379 29.8239 31.4736 29.86 31.4989 29.8875C32.2312 30.6846 32.2312 31.9097 31.4989 32.7067C31.4736 32.7342 31.4379 32.7703 31.3111 32.8971L29.8339 34.3743C28.9331 35.2751 27.6346 35.6532 26.391 35.3769C15.5488 32.9675 7.08123 24.5 4.67185 13.6577C4.3955 12.4142 4.77364 11.1156 5.67443 10.2148L7.15167 8.73758C7.27845 8.61081 7.31451 8.57514 7.34202 8.54986Z" fill="white"/>
<path d="M21.1782 7.97605C20.4878 7.97605 19.9282 8.5357 19.9282 9.22605C19.9282 9.91641 20.4878 10.4761 21.1782 10.4761H22.121C22.1392 10.4761 22.156 10.4761 22.1716 10.4761C22.2811 10.4761 22.332 10.4762 22.3744 10.4768C26.207 10.5317 29.3007 13.6253 29.3555 17.4579C29.3562 17.5064 29.3563 17.5659 29.3563 17.7113V18.6541C29.3563 19.3445 29.9159 19.9041 30.6063 19.9041C31.2966 19.9041 31.8563 19.3445 31.8563 18.6541V17.6992C31.8563 17.683 31.8563 17.6676 31.8563 17.653C31.8563 17.5502 31.8561 17.4823 31.8553 17.4221C31.781 12.2368 27.5955 8.0513 22.4102 7.97704C22.3414 7.97605 22.2626 7.97605 22.133 7.97605H21.1782Z" fill="white"/>
</svg>
