<svg width="38" height="38" viewBox="0 0 38 38" fill="none" xmlns="http://www.w3.org/2000/svg">
<path d="M23.7502 3.5625C23.0943 3.5625 22.5627 4.09416 22.5627 4.75C22.5627 5.40584 23.0943 5.9375 23.7502 5.9375H25.3335C29.0499 5.9375 32.0627 8.95025 32.0627 12.6667V14.25C32.0627 14.9058 32.5943 15.4375 33.2502 15.4375C33.906 15.4375 34.4377 14.9058 34.4377 14.25V12.6667C34.4377 7.63858 30.3616 3.5625 25.3335 3.5625H23.7502Z" fill="white"/>
<path d="M12.6668 3.5625C7.63874 3.5625 3.56266 7.63858 3.56266 12.6667V14.25C3.56266 14.9058 4.09432 15.4375 4.75016 15.4375C5.406 15.4375 5.93766 14.9058 5.93766 14.25V12.6667C5.93766 8.95025 8.95041 5.9375 12.6668 5.9375H14.2502C14.906 5.9375 15.4377 5.40584 15.4377 4.75C15.4377 4.09416 14.906 3.5625 14.2502 3.5625H12.6668Z" fill="white"/>
<path d="M1.5835 20.9792C0.927658 20.9792 0.395996 21.5108 0.395996 22.1667C0.395996 22.8225 0.927658 23.3542 1.5835 23.3542H3.63023C3.58647 23.478 3.56266 23.6112 3.56266 23.75V25.3333C3.56266 30.3614 7.63874 34.4375 12.6668 34.4375H14.2502C14.906 34.4375 15.4377 33.9058 15.4377 33.25C15.4377 32.5942 14.906 32.0625 14.2502 32.0625H12.6668C8.95041 32.0625 5.93766 29.0497 5.93766 25.3333V23.75C5.93766 23.6112 5.91385 23.478 5.87009 23.3542H32.1302C32.0865 23.478 32.0627 23.6112 32.0627 23.75V25.3333C32.0627 29.0497 29.0499 32.0625 25.3335 32.0625H23.7502C23.0943 32.0625 22.5627 32.5942 22.5627 33.25C22.5627 33.9058 23.0943 34.4375 23.7502 34.4375H25.3335C30.3616 34.4375 34.4377 30.3614 34.4377 25.3333V23.75C34.4377 23.6112 34.4139 23.478 34.3701 23.3542H36.4168C37.0727 23.3542 37.6043 22.8225 37.6043 22.1667C37.6043 21.5108 37.0727 20.9792 36.4168 20.9792H1.5835Z" fill="white"/>
</svg>
