<svg width="34" height="34" viewBox="0 0 34 34" fill="none" xmlns="http://www.w3.org/2000/svg">
<path d="M22.4547 17.1705C21.8334 17.1705 21.3297 17.6742 21.3297 18.2955C21.3297 18.9168 21.8334 19.4205 22.4547 19.4205H26.5456C27.1669 19.4205 27.6706 18.9168 27.6706 18.2955C27.6706 17.6742 27.1669 17.1705 26.5456 17.1705H22.4547Z" fill="white"/>
<path fill-rule="evenodd" clip-rule="evenodd" d="M28.4714 4.06621C28.5875 4.73215 28.6156 5.52353 28.6234 6.42896C28.7535 6.49684 28.8812 6.56909 29.0067 6.64599C30.1672 7.35717 31.143 8.33292 31.8542 9.49346C32.6372 10.7712 32.9219 12.2521 33.0396 14.1344C33.1252 15.5037 33.1251 17.1692 33.1251 19.2148V19.2572C33.1251 20.4302 33.1251 21.4751 33.1097 22.4051C33.0617 25.2969 32.8744 27.3416 31.8542 29.0066C31.143 30.1671 30.1672 31.1428 29.0067 31.854C27.8985 32.5332 26.6413 32.8358 25.106 32.9818C23.5997 33.125 21.7143 33.125 19.3093 33.125H14.6911C12.2861 33.125 10.4006 33.125 8.8943 32.9818C7.35898 32.8358 6.10183 32.5332 4.99359 31.854C3.83305 31.1428 2.8573 30.1671 2.14612 29.0066C1.467 27.8983 1.16432 26.6412 1.01834 25.1058C0.875126 23.5996 0.875133 21.7141 0.875143 19.309L0.875263 18.5205C0.855497 17.7792 0.861567 16.9505 0.868112 16.057C0.871562 15.5861 0.875143 15.0971 0.875143 14.5935L0.875143 14.5284C0.875131 11.9601 0.875122 9.94432 1.04138 8.34452C1.21095 6.71282 1.56357 5.38193 2.35883 4.24079C2.83931 3.55133 3.42223 2.94309 4.08721 2.43941C5.19468 1.60056 6.49064 1.22765 8.07106 1.04914C9.61296 0.874979 11.5527 0.874991 14.0098 0.875007L22.212 0.875002C23.4098 0.87495 24.4251 0.874906 25.2345 0.988357C26.099 1.10953 26.8924 1.3791 27.5272 2.04092C28.0782 2.61539 28.3393 3.30842 28.4714 4.06621ZM22.1328 3.12501C23.4314 3.12501 24.2873 3.1276 24.9221 3.21658C25.5196 3.30032 25.752 3.44059 25.9034 3.59844C26.0435 3.74443 26.1698 3.96483 26.2548 4.45259C26.3116 4.77873 26.3427 5.17735 26.3591 5.68729C25.74 5.57397 25.0718 5.50414 24.344 5.45923C22.9789 5.375 21.3201 5.375 19.2849 5.37501H14.6911C12.286 5.375 10.4006 5.37499 8.8943 5.51821C7.35898 5.66419 6.10183 5.96686 4.99359 6.64599C4.39617 7.01209 3.84772 7.4483 3.35912 7.94374C3.52376 6.85274 3.79338 6.11757 4.20479 5.52723C4.55216 5.02878 4.97128 4.59236 5.44574 4.23298C6.10233 3.73564 6.9466 3.44046 8.3236 3.28492C9.72453 3.12668 11.5372 3.12501 14.0798 3.12501H22.1328ZM6.16922 8.56443C6.8645 8.13835 7.73665 7.88843 9.10728 7.75811C10.4946 7.62619 12.2733 7.62501 14.7501 7.62501H19.2501C21.3271 7.62501 22.9175 7.62549 24.2054 7.70496C25.4921 7.78435 26.3916 7.93913 27.1007 8.20843C27.3663 8.30929 27.6067 8.42691 27.8311 8.56443C28.6889 9.09008 29.4101 9.81129 29.9357 10.6691C30.3057 11.2727 30.5413 12.0065 30.6826 13.0796H22.4547C19.574 13.0796 17.2388 15.4148 17.2388 18.2955C17.2388 21.1762 19.574 23.5114 22.4547 23.5114H30.8292C30.7425 25.7019 30.5034 26.9045 29.9357 27.8309C29.4101 28.6887 28.6889 29.4099 27.8311 29.9356C27.1358 30.3617 26.2636 30.6116 24.893 30.7419C23.5056 30.8738 21.727 30.875 19.2501 30.875H14.7501C12.2733 30.875 10.4946 30.8738 9.10728 30.7419C7.73665 30.6116 6.8645 30.3617 6.16921 29.9356C5.31142 29.4099 4.59022 28.6887 4.06456 27.8309C3.63849 27.1356 3.38856 26.2635 3.25824 24.8929C3.12633 23.5055 3.12514 21.7269 3.12514 19.25C3.12514 16.7732 3.12633 14.9945 3.25824 13.6071C3.38856 12.2365 3.63849 11.3644 4.06456 10.6691C4.59022 9.81129 5.31142 9.09008 6.16922 8.56443ZM19.4888 18.2955C19.4888 16.6575 20.8167 15.3296 22.4547 15.3296H30.8415C30.8749 16.4155 30.8751 17.6966 30.8751 19.25C30.8751 19.9759 30.8751 20.6435 30.8716 21.2614H22.4547C20.8167 21.2614 19.4888 19.9335 19.4888 18.2955Z" fill="white"/>
</svg>
