<svg width="21" height="22" viewBox="0 0 21 22" fill="none" xmlns="http://www.w3.org/2000/svg">
<path d="M10.5557 1.70372C12.6449 1.70372 14.2713 1.79859 15.5433 2.04332C16.8111 2.28722 17.6634 2.66845 18.2603 3.19462C19.4462 4.23997 19.9261 6.1292 19.9261 9.9383C19.9261 12.3929 19.7057 14.1991 19.1123 15.3757C18.8276 15.9405 18.4669 16.3383 18.0131 16.6029C17.5544 16.8703 16.9395 17.0371 16.093 17.0371C15.0016 17.0371 14.1825 17.2821 13.542 17.7161C12.9168 18.1397 12.5397 18.6943 12.2591 19.1357C12.2167 19.2025 12.177 19.2656 12.1394 19.3253C11.9042 19.6987 11.752 19.9403 11.5407 20.1299C11.3523 20.2989 11.0892 20.4445 10.556 20.4445C10.0228 20.4444 9.75961 20.2989 9.57126 20.1299C9.35996 19.9402 9.20777 19.6986 8.97258 19.3253C8.93495 19.2656 8.89521 19.2025 8.85275 19.1357C8.57222 18.6943 8.1951 18.1397 7.56989 17.7161C6.92937 17.2821 6.11025 17.0371 5.01889 17.0371C4.17683 17.0371 3.56387 16.8661 3.10532 16.5931C2.65022 16.3222 2.28725 15.9153 2.00063 15.342C1.40518 14.151 1.18535 12.3417 1.18535 9.9383C1.18535 6.1776 1.66387 4.28347 2.8538 3.22576C3.45248 2.6936 4.30613 2.30519 5.57224 2.05507C6.84296 1.80404 8.4683 1.70372 10.5557 1.70372Z" stroke="#212135" stroke-width="1.7037" stroke-linecap="round" stroke-linejoin="round"/>
<circle cx="7.14824" cy="10.2223" r="0.851852" fill="#212135"/>
<circle cx="10.556" cy="10.2223" r="0.851852" fill="#212135"/>
<circle cx="13.9632" cy="10.2223" r="0.851852" fill="#212135"/>
</svg>
