<svg width="25" height="26" viewBox="0 0 25 26" fill="none" xmlns="http://www.w3.org/2000/svg">
<path d="M17 7.5C16.75 4.83334 15 3 12 3C9 3 7.25 4.83335 7 7.5" stroke="#212121" stroke-width="2" stroke-linecap="round" stroke-linejoin="round"/>
<path d="M1.66668 15.8635C1.59557 16.1433 1.52187 16.4334 1.44482 16.7342C0.980131 18.7952 0.899558 20.2907 1.1101 21.3806C1.31194 22.4255 1.78159 23.111 2.51725 23.6099C3.29734 24.1389 4.44256 24.5016 6.05783 24.72C7.66323 24.937 9.6341 25 12 25C14.3659 25 16.3368 24.937 17.9422 24.72C19.5574 24.5016 20.7027 24.1389 21.4828 23.6099C22.2184 23.111 22.6881 22.4255 22.8899 21.3806C23.1004 20.2907 23.0199 18.7952 22.5552 16.7342C22.4781 16.4334 22.4044 16.1434 22.3333 15.8636C21.9557 14.3773 21.6512 13.1787 21.3055 12.1781C20.898 10.9985 20.4699 10.2116 19.9003 9.6489C18.7708 8.5331 16.7811 8 12 8C7.21883 8 5.22916 8.5331 4.09971 9.6489C3.5301 10.2116 3.10198 10.9985 2.69449 12.1781C2.34882 13.1787 2.0443 14.3772 1.66668 15.8635Z" stroke="#212121" stroke-width="2" stroke-linecap="round" stroke-linejoin="round"/>
<path d="M7 12H17" stroke="#212121" stroke-width="2" stroke-linecap="round" stroke-linejoin="round"/>
<circle cx="18" cy="12" r="7" fill="#FF5023"/>
<path d="M18.1203 12.4C18.1203 11.7467 18.087 11.1833 18.0203 10.71C17.9536 10.23 17.8203 9.65667 17.6203 8.99L18.6203 8.64C18.8336 9.31333 18.9736 9.90333 19.0403 10.41C19.1136 10.9167 19.1503 11.5767 19.1503 12.39V15H18.1203V12.4Z" fill="white"/>
</svg>
