<svg width="201" height="18" viewBox="0 0 201 18" fill="none" xmlns="http://www.w3.org/2000/svg">
<path d="M0 0.291135H3.66547V17.3398H0V0.291135ZM20.6263 6.96855H22.7289C22.8426 6.96855 22.9278 6.8833 22.9278 6.74123V4.18392C22.9278 4.04185 22.8426 3.95661 22.7289 3.95661H18.893H10.8801V6.96855H20.6263ZM10.8801 13.646V17.3398H7.21462V13.646V10.634V6.96855V3.95661V0.291135H16.7619H22.7289C24.86 0.291135 26.6217 2.02442 26.6217 4.18392V6.74123C26.6217 8.90073 24.8885 10.634 22.7574 10.634L26.6217 17.3398H22.3596L18.4952 10.634H10.8801V13.646ZM34.3964 17.3398H30.1627L39.9941 0.291135H44.2279L54.0877 17.3398H49.8255L42.1252 3.98502L34.3964 17.3398ZM73.347 12.1968V0.291135H77.0408V15.8055V17.3398H73.3754H73.347L61.2992 5.46258V17.3398H57.6337V1.85393V0.291135H61.2708L61.2992 0.31955L73.347 12.1968ZM84.8155 17.3398H80.5818L90.4132 0.291135H94.647L104.507 17.3398H100.245L92.5443 3.98502L84.8155 17.3398ZM111.718 3.98502V6.99696H123.567C123.681 6.99696 123.766 6.8833 123.766 6.76964V4.18392C123.766 4.07027 123.681 3.98502 123.567 3.98502H111.718ZM123.567 10.6624H111.718V13.6744H123.567C123.681 13.6744 123.766 13.5891 123.766 13.4755V10.8897C123.766 10.7761 123.681 10.6624 123.567 10.6624ZM108.053 0.291135H111.718H123.567C125.698 0.291135 127.46 2.05283 127.46 4.18392V6.76964C127.46 7.53684 127.233 8.21878 126.863 8.81549C127.233 9.44061 127.46 10.1226 127.46 10.8897V13.4755C127.46 15.6066 125.698 17.3398 123.567 17.3398H111.718H108.053V13.6744V10.6624V6.99696V3.98502V0.291135ZM144.185 4.24075H131.001V0.57528H150.408V4.24075L150.38 4.26917L137.195 13.9585H150.408V17.624H131.001V13.9585L144.185 4.24075ZM158.183 17.3398H153.949L163.78 0.291135H168.014L177.874 17.3398H173.612L165.911 3.98502L158.183 17.3398ZM194.832 6.96855H196.934C197.048 6.96855 197.133 6.8833 197.133 6.74123V4.18392C197.133 4.04185 197.048 3.95661 196.934 3.95661H193.098H185.085V6.96855H194.832ZM185.085 13.646V17.3398H181.42V13.646V10.634V6.96855V3.95661V0.291135H190.967H196.934C199.065 0.291135 200.827 2.02442 200.827 4.18392V6.74123C200.827 8.90073 199.094 10.634 196.963 10.634L200.827 17.3398H196.565L192.701 10.634H185.085V13.646Z" fill="#FF5023"/>
</svg>
