<svg width="22" height="22" viewBox="0 0 22 22" fill="none" xmlns="http://www.w3.org/2000/svg">
<path d="M15.4428 5.53705C15.2299 3.26545 13.7391 1.70372 11.1836 1.70372C8.62802 1.70372 7.13728 3.26545 6.92432 5.53705" stroke="#212135" stroke-width="1.7037" stroke-linecap="round" stroke-linejoin="round"/>
<path d="M1.81328 13.2037C1.81328 16.5383 2.28749 18.1652 3.44453 19.0812C4.04305 19.5551 4.90399 19.9051 6.18269 20.1301C7.46184 20.3551 9.09421 20.4445 11.1836 20.4445C13.2731 20.4445 14.9055 20.3551 16.1846 20.1301C17.4633 19.9051 18.3242 19.5551 18.9228 19.0812C20.0798 18.1652 20.554 16.5383 20.554 13.2037C20.554 11.2284 20.3899 9.8339 19.9964 8.82921C19.5678 7.73489 18.8476 7.04937 17.5285 6.60735C16.1392 6.14178 14.1255 5.96299 11.1836 5.96299C8.24176 5.96299 6.2281 6.14178 4.83878 6.60735C3.51972 7.04937 2.79953 7.73489 2.37092 8.82921C1.97742 9.8339 1.81328 11.2284 1.81328 13.2037Z" stroke="#212135" stroke-width="1.7037" stroke-linecap="round" stroke-linejoin="round"/>
</svg>
