<svg width="76" height="76" viewBox="0 0 76 76" fill="none" xmlns="http://www.w3.org/2000/svg">
<path d="M67.2126 12.4391H56.822V10.8656C56.822 7.40703 54.0017 4.58672 50.5431 4.58672H48.9103C48.836 2.03359 46.7579 0 44.2048 0H31.7954C29.2423 0 27.1642 2.03359 27.0899 4.57188H25.4571C21.9985 4.57188 19.1782 7.39219 19.1782 10.8508V12.4242H8.7876C6.21963 12.4242 4.11182 14.5172 4.11182 17.0852C4.11182 19.6531 6.20479 21.7609 8.7876 21.7609H19.1782V26.9563C19.1782 28.6039 19.8462 30.2367 21.0188 31.4094L28.6337 39.0242V50.4242H27.0009C26.1399 50.4242 25.4571 51.1219 25.4571 51.968C25.4571 52.8141 26.1548 53.5117 27.0009 53.5117H33.0423V66.2477C33.0423 69.7062 34.4376 73.0906 36.8868 75.5398C37.1837 75.8367 37.5696 76 37.9853 76C38.4009 76 38.8017 75.8367 39.0837 75.5398L39.2024 75.4211C41.6071 72.9867 42.9431 69.7359 42.9431 66.2477V53.5414H48.9845C49.8454 53.5414 50.5282 52.8438 50.5282 51.9977C50.5282 51.1367 49.8306 50.4539 48.9845 50.4539H47.3517V39.0539L54.9665 31.4391C56.1392 30.2664 56.8071 28.6484 56.8071 26.9859V21.7906H67.1978C69.7657 21.7906 71.8587 19.6977 71.8587 17.1148C71.8735 14.532 69.7806 12.4391 67.2126 12.4391ZM8.80244 18.6734C7.9415 18.6734 7.229 17.9758 7.229 17.1C7.229 16.2391 7.92666 15.5414 8.80244 15.5414H19.1931V18.6734H8.80244ZM30.1923 4.72031C30.1923 3.82969 30.9196 3.10234 31.8103 3.10234H44.2196C45.1103 3.10234 45.8376 3.82969 45.8376 4.72031V19.2227C45.8376 20.1133 45.1103 20.8406 44.2196 20.8406H31.8103C30.9196 20.8406 30.1923 20.1133 30.1923 19.2227V4.72031ZM39.8556 66.2328C39.8556 68.3703 39.2024 70.3891 38.0149 72.0516C36.8274 70.3594 36.1595 68.3258 36.1595 66.2477V53.5117H39.8556V66.2328ZM31.7509 50.4242V39.9445H44.2642V50.4242H31.7509ZM53.7196 26.9711C53.7196 27.8172 53.3782 28.6336 52.7845 29.2273L45.1696 36.8422H30.8454L23.2306 29.2273C22.6368 28.6336 22.2954 27.8023 22.2954 26.9711V10.8656C22.2954 9.11406 23.7204 7.68906 25.472 7.68906H27.0899V19.2227C27.0899 21.8203 29.2126 23.943 31.8103 23.943H44.2196C46.8173 23.943 48.9399 21.8203 48.9399 19.2227V7.67422H50.5579C52.3095 7.67422 53.7345 9.09922 53.7345 10.8508L53.7196 26.9711ZM67.2126 18.6734H56.822V15.5414H67.2126C68.0735 15.5414 68.7712 16.2391 68.7712 17.1C68.7712 17.9609 68.0735 18.6734 67.2126 18.6734Z" fill="white"/>
<path d="M34.1409 10.3461H41.8597C42.7206 10.3461 43.4034 9.64843 43.4034 8.80234C43.4034 7.95625 42.7058 7.25859 41.8597 7.25859H34.1409C33.28 7.25859 32.5972 7.95625 32.5972 8.80234C32.5972 9.64843 33.28 10.3461 34.1409 10.3461ZM34.1409 16.6844H41.8597C42.7206 16.6844 43.4034 15.9867 43.4034 15.1406C43.4034 14.2945 42.7058 13.5969 41.8597 13.5969H34.1409C33.28 13.5969 32.5972 14.2945 32.5972 15.1406C32.5972 15.9867 33.28 16.6844 34.1409 16.6844Z" fill="white"/>
</svg>
