<svg width="76" height="76" viewBox="0 0 76 76" fill="none" xmlns="http://www.w3.org/2000/svg">
<path d="M25.68 56.1836L27.8769 59.7758C28.7972 61.275 28.3222 63.2492 26.823 64.1695L10.8956 73.9367C9.39639 74.857 7.42217 74.382 6.50186 72.8828L4.30498 69.2906C3.38467 67.7914 3.85967 65.8172 5.35889 64.8969L21.2862 55.1297C22.7855 54.2094 24.7597 54.6844 25.68 56.1836Z" fill="#FF5023"/>
<path d="M70.5229 28.2625C69.5432 26.6594 67.7026 25.9172 65.951 26.2289L56.2877 10.45C49.9791 0.163284 36.4416 -3.0875 26.1252 3.2211C15.794 9.55938 12.5432 23.0375 18.8815 33.3836L28.5596 49.1625C27.8619 50.0828 27.5502 51.2258 27.6838 52.3688L25.383 53.7789C23.8986 52.8883 21.9986 52.8141 20.4401 53.7789L4.52755 63.5461C2.28615 64.9266 1.57365 67.8805 2.95412 70.1219L5.15099 73.7141C6.53146 75.9555 9.47052 76.6828 11.7268 75.2875L27.6541 65.5203C29.2276 64.5555 30.0143 62.8336 29.8955 61.1117L32.2111 59.6867C32.9385 60.1766 33.7846 60.4586 34.6455 60.4586C35.4322 60.4586 36.2338 60.2508 36.9463 59.8055C38.8315 58.6477 39.5291 56.2875 38.683 54.3133C38.9502 54.1203 39.158 53.8383 39.2768 53.5117L40.301 50.3203L43.6111 50.8547C44.3682 50.9883 45.1401 50.5281 45.3776 49.7711L46.4018 46.5797L49.6971 47.1141C50.469 47.2477 51.226 46.7875 51.4635 46.0305L52.4877 42.8391L55.7979 43.3734C56.5697 43.507 57.3268 43.0469 57.5643 42.2898L58.5885 39.0984L61.8986 39.6328C62.6557 39.7664 63.4276 39.3063 63.6651 38.5641L64.6299 35.5656L65.5651 37.0797C66.8416 39.1578 69.558 39.8258 71.651 38.5344C73.7291 37.2578 74.3822 34.5414 73.1057 32.4484L70.5229 28.2625ZM26.0065 62.8336L10.0643 72.6008C9.32209 73.0609 8.31271 72.8383 7.83771 72.0664L5.64084 68.4742C5.18068 67.7172 5.41818 66.7227 6.17521 66.2477L22.1174 56.4805C24.2549 55.1594 25.2049 58.9594 26.5557 60.6367V60.6516C26.9861 61.4086 26.7486 62.3734 26.0065 62.8336ZM28.7229 58.1281L27.5354 56.1836L28.9901 55.293L30.1776 57.2375L28.7229 58.1281ZM35.3135 57.1188C34.7197 57.475 33.9479 57.2969 33.5916 56.7031L31.0088 52.5023C30.6526 51.9234 30.8307 51.1664 31.3947 50.7953C31.4096 50.7953 31.4096 50.7953 31.4244 50.7805C31.4393 50.7805 31.4393 50.7656 31.4393 50.7656C32.0479 50.4094 32.7901 50.632 33.1315 51.1961L35.7143 55.3969C36.0854 55.9906 35.8924 56.7625 35.3135 57.1188ZM62.1065 33.1016L61.0674 36.3078L57.7572 35.7586C57.0002 35.6398 56.2283 36.0852 55.9908 36.8422L54.9666 40.0336L51.6565 39.4992C50.8846 39.3805 50.1276 39.8258 49.8901 40.5828L48.8658 43.7742L45.5705 43.2398C44.8135 43.1211 44.0416 43.5813 43.8041 44.3234L42.7799 47.5148L39.4697 46.9805C38.7127 46.8617 37.9408 47.3219 37.7033 48.0641L36.7533 51.0477L35.833 49.5484C34.8533 47.9602 33.0424 47.1883 31.2612 47.5148L21.583 31.7359C16.1799 22.8891 18.9408 11.3406 27.7877 5.92266C36.6049 0.519534 48.183 3.29532 53.5861 12.1125L63.2494 27.8914C62.2994 29.1383 62.0619 30.8305 62.7002 32.3148C62.4479 32.5078 62.2104 32.775 62.1065 33.1016ZM69.9885 35.8625C69.3651 36.2336 68.608 36.0258 68.2666 35.4469L65.6838 31.2461C65.3276 30.6672 65.5057 29.8953 66.0846 29.5242H66.0994L66.1143 29.5094C66.7229 29.1531 67.465 29.3609 67.8213 29.925L70.4041 34.1258C70.7604 34.7195 70.5822 35.4914 69.9885 35.8625Z" fill="#212121"/>
</svg>
