<svg width="76" height="76" viewBox="0 0 76 76" fill="none" xmlns="http://www.w3.org/2000/svg">
<g clip-path="url(#clip0_1_9352)">
<path d="M70.0329 57.4305L66.9157 54.2984C63.6946 51.107 63.2048 46.2086 65.4165 42.4828C66.1587 41.2063 65.9657 39.5883 64.9267 38.5344L56.3024 29.925C55.0407 28.6633 52.9923 28.6633 51.7306 29.925L34.7493 46.8617C32.7157 48.9102 32.7157 52.1906 34.7493 54.2242L53.9868 73.4617C55.2485 74.7234 57.297 74.7234 58.5587 73.4617L70.0181 62.0023C71.2946 60.7406 71.2946 58.6922 70.0329 57.4305ZM61.8392 61.0375L57.5938 65.2828C56.8665 66.0102 55.679 66.0102 54.9517 65.2828L49.7267 60.043C47.6188 57.9352 47.6188 54.5211 49.7267 52.4133L51.4634 50.6766C52.1907 49.9492 53.3782 49.9492 54.0907 50.6766L61.8392 58.4102C62.5665 59.1227 62.5665 60.3102 61.8392 61.0375Z" fill="#FF5023"/>
<path d="M68.0289 53.1852C65.4016 50.5578 64.882 46.4758 66.7672 43.2844C67.8805 41.3844 67.5836 38.9797 66.0398 37.4359L60.8148 32.2109L71.25 21.7758C71.8734 21.1523 71.8734 20.1578 71.25 19.5344C70.6266 18.9109 69.632 18.9109 69.0086 19.5344L58.5734 29.9695L57.4008 28.7969C55.5156 26.9117 52.4578 26.9117 50.5727 28.7969L50.068 29.3016L47.4852 26.7188L49.593 24.6109C50.2164 23.9875 50.2164 22.993 49.593 22.3695C48.9695 21.7461 47.975 21.7461 47.3516 22.3695L45.2437 24.4773L42.3492 21.5828L44.457 19.475C45.0805 18.8516 45.0805 17.857 44.457 17.2336C43.8336 16.6102 42.8391 16.6102 42.2156 17.2336L40.1078 19.3414L37.2133 16.4469L39.3211 14.3391C39.9445 13.7156 39.9445 12.7211 39.3211 12.0977C38.6977 11.4742 37.7031 11.4742 37.0797 12.0977L34.9719 14.2055L32.0773 11.3109L34.1852 9.20312C34.8086 8.57969 34.8086 7.58516 34.1852 6.96172C33.5617 6.33828 32.5672 6.33828 31.9437 6.96172L29.8359 9.06953L28.6633 7.89687C28.218 7.45156 27.743 7.06562 27.2383 6.69453L28.6781 3.87422C29.0789 3.0875 28.7672 2.1375 27.9805 1.75156C27.1938 1.35078 26.2437 1.6625 25.8578 2.44922L24.4773 5.16562C23.0969 4.63125 21.6273 4.33437 20.1133 4.31953L19.6383 1.35078C19.5047 0.489842 18.6883 -0.103908 17.8273 0.0296862C16.9664 0.16328 16.3727 0.979686 16.5063 1.84062L16.9664 4.70547C15.3633 5.10625 13.8641 5.83359 12.543 6.85781L10.3461 4.66094C9.72266 4.0375 8.72813 4.0375 8.10469 4.66094C7.48125 5.28437 7.48125 6.2789 8.10469 6.90234L10.2867 9.08437C9.35157 10.3312 8.63907 11.7117 8.22344 13.2109L5.26953 12.7508C4.4086 12.6172 3.59219 13.1961 3.4586 14.0719C3.325 14.9328 3.90391 15.7492 4.77969 15.8828L7.76328 16.3578C7.7336 17.9609 8.00078 19.4453 8.56485 20.9297L5.90782 22.2656C5.1211 22.6664 4.82422 23.6164 5.21016 24.3883C5.61094 25.1602 6.56094 25.4719 7.33282 25.0859L10.0492 23.7055C10.4352 24.2398 10.8508 24.7445 11.3258 25.2195L12.4984 26.3922L10.4055 28.5C9.78203 29.1234 9.78203 30.118 10.4055 30.7414C11.0289 31.3648 12.0234 31.3648 12.6469 30.7414L14.7547 28.6336L17.6492 31.5281L15.5414 33.6359C14.918 34.2594 14.918 35.2539 15.5414 35.8773C16.1648 36.5008 17.1594 36.5008 17.7828 35.8773L19.8906 33.7695L22.7852 36.6641L20.6773 38.7719C20.0539 39.3953 20.0539 40.3898 20.6773 41.0133C21.3008 41.6367 22.2953 41.6367 22.9187 41.0133L25.0266 38.9055L27.9211 41.8L25.8133 43.9078C25.1898 44.5312 25.1898 45.5258 25.8133 46.1492C26.4367 46.7727 27.4312 46.7727 28.0547 46.1492L30.1625 44.0414L32.8344 46.7133C31.0234 49.3555 31.2609 52.9922 33.6359 55.3523L52.8734 74.5898C54.7586 76.475 57.8164 76.475 59.6867 74.5898L71.1461 63.1305C73.0312 61.2453 73.0312 58.1875 71.1461 56.3172L68.0289 53.1852ZM35.0016 44.3977L13.582 22.9781C10.3461 19.7422 9.79688 13.9234 13.5672 10.1531C13.5672 10.1531 13.582 10.1531 13.582 10.1383C13.582 10.1383 13.582 10.1234 13.5969 10.1234C17.1 6.63515 22.8445 6.54609 26.4219 10.1383L47.8414 31.5578L35.0016 44.3977ZM68.9047 60.8891L57.4453 72.3484C56.8219 72.9719 55.7383 72.9719 55.1 72.3484L35.8773 53.1109C34.4523 51.6859 34.4672 49.4 35.8773 47.9898L52.8289 31.0383C53.4672 30.4 54.5211 30.3852 55.1742 31.0383L56.3469 32.2109L44.1453 44.4125C43.5219 45.0359 43.5219 46.0305 44.1453 46.6539C44.7687 47.2773 45.7633 47.2773 46.3867 46.6539L58.5883 34.4523L63.7984 39.6625C64.3328 40.1969 64.4219 41.0133 64.0359 41.6664C61.4086 46.1047 62.1359 51.7602 65.7875 55.4117L68.9195 58.5437C69.5578 59.1969 69.5578 60.2359 68.9047 60.8891Z" fill="#212121"/>
<path d="M62.9672 57.282L55.2336 49.5484C54.5805 48.8953 53.7195 48.5391 52.7992 48.5391C51.8789 48.5391 51.018 48.8953 50.3648 49.5484L48.6281 51.2852C45.9117 54.0164 45.9117 58.4398 48.6281 61.1711L53.8531 66.3961C55.2039 67.7469 57.3859 67.7469 58.7219 66.3961L62.9672 62.1508C64.3031 60.8148 64.3031 58.618 62.9672 57.282ZM60.7258 59.9094L56.4805 64.1547C56.3469 64.2883 56.2281 64.2883 56.0945 64.1547L50.8547 58.9297C49.3703 57.4453 49.3703 55.0109 50.8547 53.5266L52.5914 51.7898C52.6656 51.7156 52.7398 51.7008 52.7844 51.7008C52.8438 51.7008 52.918 51.7156 52.9773 51.7898L60.7109 59.5234C60.8297 59.6273 60.8297 59.8055 60.7258 59.9094Z" fill="#212121"/>
</g>
<defs>
<clipPath id="clip0_1_9352">
<rect width="76" height="76" fill="white"/>
</clipPath>
</defs>
</svg>
