<svg width="76" height="76" viewBox="0 0 76 76" fill="none" xmlns="http://www.w3.org/2000/svg">
<path d="M21.8502 51.5078L16.5955 56.7625C14.8588 58.5141 12.0088 58.5141 10.2424 56.7625L6.90254 53.4375C5.15098 51.6859 5.15098 48.8359 6.90254 47.0695L12.1721 41.8C12.2166 41.8594 12.276 41.9336 12.3502 41.993L21.6721 51.3297C21.7314 51.3891 21.776 51.4484 21.8502 51.5078ZM41.9783 21.6867C44.5166 24.2398 48.658 24.2398 51.1963 21.7016L59.4939 30.0141C60.815 31.3203 60.6221 33.5023 59.1229 34.5859C50.7213 40.6273 38.9354 39.8703 31.3799 32.3C23.8244 24.7445 23.0674 12.9734 29.1088 4.57187C30.1924 3.05781 32.3744 2.87969 33.6807 4.18594L41.9783 12.4984C39.44 15.007 39.44 19.1484 41.9783 21.6867Z" fill="#FF5023"/>
<path d="M25.1752 33.8883C24.5518 33.2649 23.5572 33.2649 22.9338 33.8883L18.5994 38.2227C17.976 38.8461 17.976 39.8406 18.5994 40.4641C19.2229 41.0875 20.2174 41.0875 20.8408 40.4641L25.1752 36.1297C25.7838 35.5063 25.7838 34.5117 25.1752 33.8883ZM27.5354 38.5047L23.201 42.8391C22.5775 43.4625 22.5775 44.457 23.201 45.0805C23.8244 45.7039 24.8189 45.7039 25.4424 45.0805L29.7768 40.7461C30.4002 40.1227 30.4002 39.1281 29.7768 38.5047C29.1682 37.8813 28.1588 37.8813 27.5354 38.5047Z" fill="#212121"/>
<path d="M69.2908 43.1359L68.89 43.5367L60.6518 35.2984C61.3791 34.5414 61.8393 33.5617 61.9283 32.493C62.0322 31.1422 61.5572 29.8359 60.6072 28.8859L59.7314 28.0102C65.3127 21.3008 64.9564 11.2961 58.6627 5.00235C52.3689 -1.27656 42.3791 -1.63281 35.6697 3.94844L34.7939 3.07266C32.79 1.05391 29.465 1.33594 27.8025 3.63672C23.8986 9.06953 22.6814 15.6453 23.958 21.7758L11.2221 34.5266C9.44082 36.3078 8.84707 39.0984 10.1385 41.5922L5.77441 45.9563C3.39941 48.3313 3.39941 52.1906 5.77441 54.5656L6.53145 55.3227C4.82441 58.3656 5.31426 62.2102 7.86738 64.7484L18.6291 75.525C19.2525 76.1484 20.2471 76.1484 20.8705 75.525C21.4939 74.9016 21.4939 73.907 20.8705 73.2836L10.0939 62.4922C8.81738 61.2156 8.4166 59.3453 8.93613 57.6977L9.09941 57.8609C11.5189 60.2805 15.3783 60.1914 17.6939 57.8609L22.058 53.4969C24.5814 54.8031 27.3721 54.1945 29.1533 52.4281L41.8893 39.6922C44.7244 40.2859 47.2775 40.3156 49.8604 39.9445L61.1564 51.2406L60.7705 51.6266C60.1471 52.25 60.1471 53.2445 60.7705 53.868C61.3939 54.4914 62.3885 54.4914 63.0119 53.868C71.9182 44.9766 71.5916 45.2883 71.5471 45.3328C72.1705 44.7094 72.1705 43.7148 71.5471 43.0914C70.9236 42.468 69.9143 42.5125 69.2908 43.1359ZM50.0682 20.5734C48.0643 22.5773 44.3682 22.4438 42.5869 19.95C42.5572 19.9055 42.5127 19.8609 42.483 19.8164C41.251 17.9609 41.3697 15.3336 43.1064 13.5969C45.0213 11.682 48.1533 11.6672 50.0682 13.5969C51.9979 15.5266 51.983 18.6438 50.0682 20.5734ZM56.4361 7.22891C61.483 12.2758 61.8393 20.2914 57.49 25.7539L53.3189 21.5828C55.3971 18.4656 55.115 14.1609 52.3096 11.3703C49.4893 8.53516 45.1697 8.29766 42.0971 10.3609L37.926 6.18985C43.3736 1.82578 51.3744 2.18203 56.4361 7.22891ZM15.4674 55.6492C14.3541 56.7773 12.4986 56.7922 11.3557 55.6344L8.01582 52.3242C6.87285 51.1813 6.87285 49.3406 8.01582 48.1977L12.1572 44.0563L19.6088 51.5078L15.4674 55.6492ZM38.4307 38.6977L26.9119 50.2164C25.7689 51.3594 23.9283 51.3594 22.7854 50.2164L13.4486 40.8648C12.3057 39.7367 12.3205 37.8961 13.4486 36.768L24.9525 25.2492C26.051 28.1289 27.9213 31.0977 30.2369 33.4133C32.5971 35.7586 35.4322 37.5547 38.4307 38.6977ZM32.4932 31.157C25.7541 24.4625 24.5221 13.6266 30.3705 5.47735C30.89 4.75 31.9291 4.67578 32.5525 5.28438C32.983 5.71484 40.1377 12.8844 39.8408 12.5727C37.7479 15.7047 38.1635 20.0984 40.8502 22.7852C43.5666 25.5016 47.9604 25.8875 51.0775 23.8094C51.2408 23.9727 58.8557 31.5875 58.3807 31.0977C58.7814 31.4984 58.8111 31.9734 58.7963 32.2109C58.7814 32.4633 58.6775 32.9234 58.2025 33.2648C50.1275 39.0836 39.2619 37.9555 32.4932 31.157ZM63.3979 49.0289L53.5119 39.143C54.8479 38.7273 56.54 38 58.0393 37.1391L66.6635 45.7633C66.5002 45.9266 63.1752 49.2367 63.3979 49.0289Z" fill="#212121"/>
</svg>
