<svg width="67" height="67" viewBox="0 0 67 67" fill="none" xmlns="http://www.w3.org/2000/svg">
<g clip-path="url(#clip0_1_9365)">
<path d="M10.4425 21.9059L16.5274 33.343C17.3257 34.8348 16.763 36.6799 15.2843 37.4781L11.9997 39.2578C10.5079 40.0691 8.64969 39.5064 7.85145 38.0016L1.7534 26.5645C0.955161 25.0727 1.51786 23.2275 2.99657 22.4293L6.28114 20.6496C7.77293 19.8514 9.64422 20.4141 10.4425 21.9059ZM63.7153 40.7496C63.7153 42.1629 63.5583 43.5238 63.2442 44.8324H29.103C26.4727 33.7879 34.8608 23.2014 46.1671 23.2014C55.8507 23.2145 63.7153 31.066 63.7153 40.7496Z" fill="#FF5023"/>
<path d="M65.5998 43.4453H64.8931C65.024 42.5555 65.1025 41.6656 65.1025 40.7627C65.1025 32.0475 59.1876 24.7193 51.166 22.5209L44.2828 12.2877C40.7365 7.00098 33.5392 5.56152 28.2394 9.09473L12.6148 19.498C12.1044 19.8383 11.6726 20.257 11.3324 20.7281C9.97144 18.8568 7.53745 18.3988 5.62691 19.4195L2.34234 21.1992C0.183157 22.3639 -0.628171 25.0596 0.523391 27.2188L6.60835 38.6559C7.773 40.8412 10.4818 41.6525 12.6541 40.4748L15.9386 38.6951C16.4751 38.4072 16.9332 38.0146 17.2865 37.5697C18.8175 40.0691 21.5263 41.6133 24.4968 41.6133H27.271C27.2972 42.2283 27.3496 42.8303 27.4281 43.4322H26.2242C25.4521 43.4322 24.824 44.0603 24.824 44.8324C24.824 45.6045 25.4521 46.2326 26.2242 46.2326H28.4095L28.3179 46.4027C28.1216 46.7561 28.0824 47.1748 28.2263 47.5543C28.3703 47.9338 28.6582 48.2348 29.0376 48.3787L31.681 49.3863L31.2361 52.1736C31.1707 52.5793 31.2884 52.985 31.5501 53.2859C31.8119 53.6 32.1914 53.7832 32.597 53.7832L35.4105 53.8225L35.947 56.5967C36.0255 56.9893 36.2742 57.3426 36.6144 57.5389C36.9677 57.7482 37.3865 57.7875 37.766 57.6436L40.4355 56.7145L41.9011 59.1484C42.1105 59.4887 42.4638 59.7373 42.8564 59.8027C43.2621 59.8682 43.6677 59.7635 43.9818 59.5148L46.1671 57.7352L48.3525 59.5148C49.0068 60.0514 49.9882 59.8812 50.4332 59.1484L51.8988 56.7275L54.5552 57.6566C54.9347 57.7875 55.3535 57.7482 55.7068 57.5519C56.0601 57.3557 56.3087 57.0023 56.3873 56.6098L56.9238 53.8225L59.7373 53.7832C60.1429 53.7832 60.5224 53.6 60.7841 53.2859C61.0458 52.9719 61.1636 52.5662 61.0982 52.1736L60.6533 49.3863L63.2966 48.3787C63.6761 48.2348 63.9771 47.9338 64.108 47.5543C64.2519 47.1748 64.2126 46.7561 64.0164 46.4027L63.9248 46.2326H65.6128C66.3849 46.2326 67.013 45.6045 67.013 44.8324C66.9999 44.0603 66.3718 43.4453 65.5998 43.4453ZM14.6169 36.248L11.3324 38.0277C10.521 38.4727 9.51343 38.1586 9.08159 37.3473L2.98355 25.9102C2.55171 25.0988 2.85269 24.0912 3.66402 23.6594L6.94859 21.8797C7.773 21.4348 8.78062 21.7619 9.21245 22.5602L10.9921 25.9102L15.2843 33.9842C15.7162 34.7955 15.4152 35.8031 14.6169 36.248ZM19.498 35.8424L13.4523 24.6016C12.9289 23.6201 13.2298 22.4293 14.1459 21.8273L29.7835 11.4109C31.2753 10.4164 32.9634 9.94531 34.6384 9.94531C37.4781 9.94531 40.2654 11.3063 41.9666 13.8449L47.371 21.8535C47.2271 21.8404 46.3111 21.8143 46.1802 21.8143C44.9632 21.8143 43.4191 21.9713 42.0712 22.2723L38.1324 16.4098C36.8892 14.5516 34.2066 14.0281 32.3615 15.2582L22.5863 21.775C20.3355 23.2668 19.6027 26.198 20.8851 28.5928C21.788 30.2939 23.5416 31.3539 25.4783 31.3539H29.7443C27.6767 34.9395 27.4804 38.1848 27.3496 38.8391H24.523C22.4031 38.826 20.4794 37.6875 19.498 35.8424ZM31.681 28.5535H25.4652C24.5623 28.5535 23.7509 28.0693 23.3322 27.2842C22.7302 26.1719 23.0705 24.7979 24.1173 24.1043L33.9056 17.5875C34.1412 17.4305 34.3898 17.365 34.6646 17.365C35.1226 17.365 35.5544 17.6006 35.8031 17.9801L39.2578 23.1359C36.3003 24.2875 33.6308 26.2504 31.681 28.5535ZM45.9708 24.6146C55.7853 24.4838 63.7808 33.2906 62.0927 43.4453H30.2416C28.6058 33.5654 36.1957 24.7324 45.9708 24.6146ZM52.8671 46.2326C51.2445 48.2086 48.7974 49.3994 46.1671 49.3994C43.5369 49.3994 41.0898 48.2086 39.4802 46.2326H52.8671ZM58.5988 47.1879C57.9837 47.4234 57.6173 48.0646 57.722 48.7059L58.0884 51.0221L55.746 51.0613C55.0787 51.0744 54.516 51.5455 54.3982 52.1867L53.9533 54.5029L51.7417 53.7309C51.1136 53.5084 50.4332 53.757 50.0798 54.3328L48.8628 56.348L47.0439 54.8693C46.7822 54.66 46.4681 54.5553 46.1671 54.5553C45.8531 54.5553 45.539 54.66 45.2904 54.8693L43.4714 56.348L42.2544 54.3328C41.9142 53.7701 41.2207 53.5084 40.6056 53.7309L38.3941 54.5029L37.9492 52.1867C37.8183 51.5324 37.2556 51.0613 36.6013 51.0482L34.2589 51.009L34.6253 48.6928C34.73 48.0385 34.3636 47.4104 33.7486 47.1748L31.5501 46.3373L31.6156 46.2064H36.1564C38.1455 49.8443 41.9666 52.1605 46.1671 52.1605C50.3677 52.1605 54.1888 49.8443 56.1779 46.2064H60.7187L60.7841 46.3373L58.5988 47.1879Z" fill="#212121"/>
</g>
<defs>
<clipPath id="clip0_1_9365">
<rect width="67" height="67" fill="white"/>
</clipPath>
</defs>
</svg>
