<svg width="76" height="62" viewBox="0 0 76 62" fill="none" xmlns="http://www.w3.org/2000/svg">
<path d="M31.1719 31.5195V38.125C31.1719 40.4258 29.3016 42.2961 27.0008 42.2961H22.6367C23.3344 39.075 24.6852 35.557 26.2883 31.5344H31.1719V31.5195ZM47.693 1.86172H43.6406V31.5195H47.693C49.8453 31.5195 51.582 29.7828 51.582 27.6305V5.75079C51.582 3.61329 49.8453 1.86172 47.693 1.86172Z" fill="#FF5023"/>
<path d="M74.4116 15.1172H63.16C62.9076 14.4344 62.5217 13.8109 61.9725 13.3211L53.1108 5.23125C52.8287 2.41094 50.4537 0.273438 47.7076 0.273438H16.9069C8.00062 0.273437 0.593584 7.0125 0.0295218 15.607C-0.490009 23.6672 4.76468 30.6883 12.3201 32.5883C10.2717 36.1211 7.03577 43.6766 7.3178 55.7148C7.39202 59.0844 10.0787 61.7117 13.4334 61.7117H25.4123C27.9803 61.7117 30.0584 59.6188 30.0584 57.0656C30.0584 55.1805 28.8709 53.4437 27.0897 52.7461L25.442 52.1078C25.1006 51.9742 24.8186 51.7219 24.685 51.4547C23.6311 49.1242 23.4826 46.6602 23.928 43.8695H27.0006C30.1772 43.8695 32.7451 41.2867 32.7451 38.125V33.1078H47.7373C50.5873 33.093 52.8436 30.8664 53.1108 28.1797L61.9725 20.0898C62.5217 19.6 62.9076 18.9766 63.16 18.2937H74.4116C75.2873 18.2937 75.9998 17.5812 75.9998 16.7055C75.9998 15.8148 75.2873 15.1172 74.4116 15.1172ZM47.7225 29.9312H45.2287V3.45H47.7076C48.9842 3.45 49.9936 4.50391 49.9936 5.75078V27.6305C49.9936 28.907 48.9545 29.9312 47.7225 29.9312ZM24.2991 55.0617L25.9319 55.7C26.4959 55.9227 26.8819 56.4719 26.8819 57.0656C26.8819 57.882 26.2139 58.55 25.3975 58.55H13.4186C11.8006 58.55 10.5092 57.2734 10.4795 55.6406C10.1233 40.7078 15.5858 33.2266 16.2092 32.4102C16.5655 31.95 16.6397 31.3414 16.417 30.807C16.1944 30.2727 15.6897 29.9164 15.1108 29.857C7.95609 29.1742 2.73108 22.9992 3.19124 15.8C3.63655 8.86797 9.66312 3.43516 16.9069 3.43516H42.0522V29.9312H26.2881C25.635 29.9312 25.0561 30.3172 24.8186 30.9258C21.9983 37.9172 18.7178 45.9328 21.8053 52.7609C22.2803 53.8 23.1858 54.6313 24.2991 55.0617ZM29.5834 38.125C29.5834 39.55 28.4256 40.7078 27.0006 40.7078H24.6553C25.3381 38.3031 26.303 35.75 27.3569 33.1078H29.5834V38.125ZM59.8498 17.7297L53.1702 23.8305V9.55078L59.8498 15.6516C60.1467 15.9188 60.31 16.2898 60.31 16.6906C60.31 17.0914 60.1467 17.4625 59.8498 17.7297Z" fill="#212121"/>
<path d="M15.4374 11.7328H28.4257C29.3015 11.7328 30.014 11.0203 30.014 10.1445C30.014 9.26874 29.3015 8.55624 28.4257 8.55624H15.4374C14.5616 8.55624 13.8491 9.26874 13.8491 10.1445C13.8491 11.0203 14.5616 11.7328 15.4374 11.7328ZM29.9991 23.2219C29.9991 22.3461 29.2866 21.6336 28.4108 21.6336H15.4374C14.5616 21.6336 13.8491 22.3461 13.8491 23.2219C13.8491 24.0977 14.5616 24.8102 15.4374 24.8102H28.4257C29.2866 24.8102 29.9991 24.0977 29.9991 23.2219ZM32.8937 16.6906C32.8937 15.8148 32.1812 15.1023 31.3054 15.1023H12.5429C11.6671 15.1023 10.9546 15.8148 10.9546 16.6906C10.9546 17.5664 11.6671 18.2789 12.5429 18.2789H31.3202C32.1812 18.2789 32.8937 17.5664 32.8937 16.6906Z" fill="#212121"/>
</svg>
