<svg width="20" height="18" viewBox="0 0 20 18" fill="none" xmlns="http://www.w3.org/2000/svg">
<path d="M11.7109 0.441209L19.2409 7.93721C19.8069 8.50121 19.8069 9.49921 19.2409 10.0652L11.7109 17.5612C11.1229 18.1452 10.1729 18.1432 9.58891 17.5552C9.00492 16.9672 9.00491 16.0192 9.59291 15.4332L14.5469 10.4992L1.83691 10.4992C1.00691 10.4992 0.336914 9.82721 0.336914 8.99921C0.336914 8.17121 1.00691 7.49921 1.83691 7.49921L14.5469 7.49921L9.59291 2.56721C9.29891 2.27321 9.15291 1.88921 9.15291 1.50321C9.15291 1.12121 9.29891 0.737208 9.58891 0.445208C10.1729 -0.140792 11.1229 -0.142791 11.7109 0.441209Z" fill="#FF5023"/>
</svg>
