<svg width="20" height="18" viewBox="0 0 20 18" fill="none" xmlns="http://www.w3.org/2000/svg">
<path d="M8.28909 0.441209L0.759085 7.93721C0.193085 8.50121 0.193085 9.49921 0.759085 10.0652L8.28909 17.5612C8.87709 18.1452 9.82709 18.1432 10.4111 17.5552C10.9951 16.9672 10.9951 16.0192 10.4071 15.4332L5.45308 10.4992L18.1631 10.4992C18.9931 10.4992 19.6631 9.82721 19.6631 8.99921C19.6631 8.17121 18.9931 7.49921 18.1631 7.49921L5.45308 7.49921L10.4071 2.56721C10.7011 2.27321 10.8471 1.88921 10.8471 1.50321C10.8471 1.12121 10.7011 0.737208 10.4111 0.445208C9.82709 -0.140792 8.87709 -0.142791 8.28909 0.441209Z" fill="#FF5023"/>
</svg>
